<?xml version="1.0" standalone="no"?>
<!DOCTYPE svg PUBLIC "-//W3C//DTD SVG 20010904//EN"
 "http://www.w3.org/TR/2001/REC-SVG-20010904/DTD/svg10.dtd">
<svg version="1.0" xmlns="http://www.w3.org/2000/svg"
 width="570.000000pt" height="512.000000pt" viewBox="0 0 570.000000 512.000000"
 preserveAspectRatio="xMidYMid meet">

<g transform="translate(0.000000,512.000000) scale(0.100000,-0.100000)"
fill="#000000" stroke="none">
<path d="M3007 4689 c-9 -5 -26 -28 -38 -50 -11 -22 -48 -73 -83 -112 -85 -99
-139 -173 -169 -232 -39 -79 -87 -223 -87 -263 0 -54 -13 -68 -47 -56 -19 6
-33 22 -45 54 -10 25 -35 91 -57 146 -56 146 -79 179 -135 193 -25 6 -69 11
-98 11 -66 0 -84 -11 -333 -198 -217 -165 -301 -245 -344 -330 l-32 -63 16
-152 c17 -157 22 -184 31 -175 3 3 16 71 29 152 14 80 31 161 39 180 18 43 74
87 282 222 260 169 316 203 330 197 26 -10 57 -74 56 -118 -2 -137 -261 -418
-607 -660 l-100 -69 -105 -6 c-58 -4 -114 -12 -125 -18 -12 -6 -90 -84 -175
-174 -85 -90 -211 -222 -280 -293 -115 -120 -369 -397 -427 -466 -46 -54 -18
-48 63 14 352 268 417 321 748 605 86 75 117 88 216 95 101 8 174 28 244 67
73 42 320 73 533 68 83 -1 154 -6 158 -9 3 -4 -12 -34 -34 -68 -77 -119 -121
-279 -121 -440 0 -128 53 -295 113 -355 29 -29 33 -29 235 15 148 32 168 34
243 18 43 -9 62 -21 104 -63 28 -28 61 -73 74 -100 22 -48 22 -51 7 -112 -22
-85 -21 -86 23 -152 58 -86 87 -149 109 -238 33 -137 152 -534 192 -645 21
-58 45 -143 54 -190 17 -98 109 -364 150 -433 31 -53 40 -56 26 -7 -5 18 -27
121 -49 230 -22 108 -49 228 -59 266 -11 39 -40 144 -65 235 -25 91 -57 221
-72 290 -14 69 -35 159 -45 202 -27 103 -26 196 1 251 55 109 244 319 392 436
74 57 82 61 131 61 30 0 93 -7 142 -15 166 -29 241 -64 295 -138 41 -57 55
-90 94 -237 18 -69 52 -173 76 -230 50 -126 88 -253 125 -423 18 -83 31 -124
38 -117 5 5 11 58 14 117 4 122 -23 286 -78 456 -49 153 -59 214 -76 453 -29
407 -10 809 46 995 29 97 50 119 111 119 28 0 64 -7 82 -16 128 -65 242 -232
288 -419 11 -44 39 -134 62 -200 41 -118 42 -122 42 -255 0 -116 -3 -145 -24
-203 -12 -38 -20 -71 -17 -74 7 -7 60 107 88 191 29 87 36 295 14 403 -35 172
-102 327 -197 453 -90 119 -123 146 -393 330 -71 48 -96 60 -127 60 -38 0 -41
2 -60 47 -25 59 -18 92 29 142 45 48 97 64 212 65 72 1 93 -3 140 -25 69 -33
200 -129 310 -229 149 -134 145 -116 -15 68 -115 132 -197 204 -285 251 -53
28 -267 91 -310 91 -13 0 -32 20 -56 58 -63 100 -156 183 -269 239 -112 57
-143 62 -410 64 -135 1 -247 0 -249 -2 -1 -2 -18 -31 -36 -64 -19 -33 -68 -95
-111 -137 -85 -87 -160 -128 -242 -136 l-50 -5 5 54 c3 30 14 75 26 101 24 51
27 75 13 110 -5 13 -15 77 -22 143 -11 101 -16 123 -35 142 -26 26 -31 27 -57
12z m-31 -221 c-3 -13 -6 -29 -6 -35 0 -7 -13 -19 -28 -27 -15 -8 -47 -33 -71
-56 -23 -23 -45 -39 -48 -36 -3 2 3 26 12 51 14 35 28 52 61 71 23 14 48 31
54 39 19 22 33 18 26 -7z m1086 -94 c64 -15 139 -50 208 -97 51 -35 160 -136
160 -148 0 -5 -17 -16 -37 -24 -21 -9 -72 -50 -114 -91 l-76 -76 -129 -40
c-130 -41 -275 -60 -339 -44 -24 6 -25 9 -25 89 0 96 22 252 45 319 21 60 67
105 125 122 49 14 93 12 182 -10z m-1101 -149 c-11 -75 -26 -145 -33 -154 -60
-80 -113 -111 -192 -111 -30 0 -57 4 -61 9 -7 12 34 106 82 185 59 97 211 247
221 217 2 -5 -6 -70 -17 -146z m775 78 c-3 -16 -15 -61 -26 -101 -11 -41 -23
-127 -26 -193 -4 -66 -11 -122 -16 -125 -14 -9 -66 44 -90 89 -22 44 -26 140
-9 205 21 78 94 152 149 152 22 0 24 -3 18 -27z m-206 -272 c22 -69 35 -92 71
-126 24 -23 52 -46 62 -52 13 -6 23 -33 33 -79 19 -93 38 -137 86 -206 22 -31
38 -64 35 -72 -3 -8 -36 -32 -74 -54 -37 -22 -86 -53 -108 -70 -84 -61 -81
-62 -81 36 1 76 -3 94 -26 138 -28 54 -77 103 -130 130 -48 25 -138 30 -177 9
-53 -27 -65 -15 -58 56 7 80 46 156 119 235 69 73 172 146 201 142 15 -2 26
-23 47 -87z m-320 70 c0 -15 -131 -132 -143 -128 -30 10 6 105 47 123 35 15
96 18 96 5z m1388 -50 c133 -30 118 -38 -41 -22 -50 6 -85 14 -95 25 -15 15
-14 16 18 16 19 0 72 -9 118 -19z m-1656 -76 c-2 -20 -20 -94 -41 -164 -51
-168 -57 -215 -35 -270 9 -24 13 -45 8 -49 -17 -14 -184 -65 -191 -59 -3 4 -9
75 -13 159 -6 132 -11 163 -35 223 -35 91 -45 125 -37 125 4 0 25 -12 47 -25
46 -29 111 -33 153 -11 15 8 49 37 77 65 27 28 54 50 60 48 5 -2 9 -21 7 -42z
m-537 -7 c81 -182 139 -345 157 -436 10 -57 17 -106 15 -109 -3 -2 -80 -1
-171 3 -200 8 -193 4 -177 128 6 44 10 126 8 181 -2 99 -1 101 32 157 68 113
109 135 136 76z m374 -34 c3 -2 -1 -10 -7 -16 -15 -15 -104 2 -110 21 -4 11 6
12 54 6 33 -4 61 -9 63 -11z m1391 -45 c0 -27 -120 -198 -190 -270 -82 -87
-106 -96 -153 -59 -35 27 -95 153 -103 213 l-7 47 94 0 c83 1 107 5 204 40
114 40 155 48 155 29z m209 -81 c42 -110 33 -189 -28 -237 -101 -79 -293 -195
-311 -189 -6 2 16 34 48 72 32 37 91 125 131 195 99 174 139 214 160 159z
m-2175 -176 c-1 -37 -10 -92 -20 -122 -17 -51 -23 -57 -74 -82 -40 -20 -94
-33 -198 -49 -79 -12 -146 -18 -149 -15 -15 14 184 198 341 315 63 47 71 50
85 36 12 -11 16 -34 15 -83z m2335 -8 c9 -9 47 -32 85 -53 65 -34 97 -63 85
-76 -3 -3 -39 10 -80 29 -41 19 -91 37 -112 41 -46 9 -53 19 -33 50 19 29 33
31 55 9z m-1072 -105 c26 1 35 -4 47 -28 10 -19 13 -41 10 -61 -8 -35 -26 -35
-34 1 -4 15 -14 25 -28 27 -21 3 -62 45 -62 64 0 6 8 7 18 3 9 -4 31 -7 49 -6z
m1083 -62 c0 -12 -16 -85 -35 -162 -20 -77 -40 -183 -45 -235 -14 -144 -12
-475 5 -655 8 -88 15 -171 15 -185 0 -32 -14 -16 -30 35 -7 22 -30 72 -51 110
-21 39 -51 107 -68 153 -17 46 -51 116 -76 155 -25 39 -50 89 -56 111 -35 131
70 469 184 593 83 91 157 129 157 80z m-1567 -53 c41 -8 33 -24 -12 -24 -22 0
-43 -5 -46 -10 -4 -6 -25 -20 -47 -31 -40 -20 -40 -20 -62 -1 -11 10 -29 22
-38 25 -36 13 -17 27 36 27 39 0 55 4 60 15 6 16 16 16 109 -1z m519 -56 c-15
-15 -26 -4 -18 18 5 13 9 15 18 6 9 -9 9 -15 0 -24z m-1864 -39 c-9 -5 -49
-13 -89 -18 -57 -8 -79 -16 -111 -41 -43 -35 -56 -34 -38 2 33 62 46 68 154
68 72 -1 96 -3 84 -11z m2672 5 c0 -3 -24 -54 -54 -114 -36 -72 -61 -140 -76
-204 -23 -98 -35 -117 -46 -68 -17 79 -28 97 -83 125 -30 15 -64 27 -76 27
-12 0 -47 -18 -78 -40 -74 -54 -95 -54 -58 -2 10 15 28 45 39 67 18 37 29 44
134 88 62 26 145 65 183 87 63 34 115 50 115 34z m-770 -185 c30 -5 112 -9
183 -9 100 0 127 -3 127 -14 0 -19 -74 -101 -114 -125 -39 -25 -122 -28 -176
-6 -19 7 -55 21 -80 30 -25 9 -48 22 -52 28 -4 7 -8 36 -8 66 l0 54 33 -7 c17
-4 57 -11 87 -17z m548 -141 c7 -7 12 -21 11 -32 0 -12 -3 -15 -6 -8 -3 7 -16
17 -29 22 -13 5 -24 14 -24 20 0 14 33 13 48 -2z m-548 -27 l54 -28 -31 -16
c-17 -9 -50 -19 -74 -23 l-42 -7 6 39 c4 21 7 45 7 52 0 18 19 14 80 -17z
m471 -93 c25 -49 109 -256 109 -269 0 -4 -32 -18 -72 -30 -40 -11 -97 -32
-128 -46 -42 -19 -82 -26 -170 -33 -154 -11 -245 -37 -342 -97 -21 -13 -42
-23 -48 -23 -12 0 -14 318 -2 337 4 6 46 20 94 32 80 19 224 66 428 140 47 17
91 31 97 31 7 0 22 -19 34 -42z m-3031 -25 c-44 -52 -154 -153 -159 -147 -6 6
162 174 174 174 5 0 -2 -12 -15 -27z m1889 -219 c-18 -22 -124 -74 -151 -74
-24 0 -88 34 -88 47 0 5 35 9 78 10 42 0 95 8 117 16 53 20 60 20 44 1z m315
-52 c7 -11 -21 -216 -34 -258 -15 -44 -30 -43 -72 4 -19 20 -62 61 -96 90 -34
30 -62 58 -62 62 0 4 23 15 52 25 28 9 81 32 117 50 69 36 86 40 95 27z m983
-74 c29 -28 30 -58 2 -58 -35 0 -199 41 -199 50 0 12 68 28 124 29 38 1 55 -4
73 -21z m-380 -41 c2 -3 -42 -41 -99 -85 -57 -44 -155 -128 -218 -187 -175
-163 -195 -167 -195 -42 1 107 39 171 140 235 59 38 149 72 213 81 56 8 150 7
159 -2z m-587 -336 c20 -39 13 -53 -22 -46 -47 10 -55 21 -33 45 23 25 41 26
55 1z m5 -104 c17 -26 87 -275 82 -291 -2 -5 -20 35 -41 89 -21 55 -51 124
-67 154 -16 30 -29 58 -29 63 0 18 40 7 55 -15z"/>
</g>
</svg>
